<?xml version="1.0" encoding="iso-8859-1"?>
<!-- Generator: Adobe Illustrator 23.0.2, SVG Export Plug-In . SVG Version: 6.00 Build 0)  -->
<svg version="1.1" id="&#x56FE;&#x5C42;_1" width="130" height="44" xmlns="http://www.w3.org/2000/svg" xmlns:xlink="http://www.w3.org/1999/xlink" x="0px"
	 y="0px" viewBox="0 0 53.935 14.323" style="enable-background:new 0 0 53.935 14.323;" xml:space="preserve">
<g>
	<path style="fill:#FE8301;" d="M7.152,3.357l0.15,0.01c0.193,0,0.344-0.014,0.45-0.04c0.16-0.026,0.28-0.04,0.36-0.04
		c0.32,0,0.567,0.087,0.74,0.26c-0.107,1-0.16,1.816-0.16,2.45c0,0.18,0.003,0.31,0.01,0.39l0.03,0.561l0.21-0.13
		c-0.14,0.267-0.21,0.52-0.21,0.76c0,0.073,0.01,0.16,0.03,0.26c0.286,0,0.606,0.021,0.96,0.061l0.07-0.74
		c0.073-0.754,0.11-1.356,0.11-1.811l-0.01-0.33c0.293,0.014,0.44,0.207,0.44,0.58c0.006,0.061,0,0.177-0.02,0.351l-0.03,0.279
		l0.32-0.569c0.227-0.38,0.385-0.681,0.475-0.9c0.09-0.22,0.135-0.45,0.135-0.689c0-0.113-0.007-0.217-0.02-0.311
		c-0.213,0.047-0.473,0.167-0.78,0.36c-0.22,0.133-0.4,0.229-0.54,0.29c-0.14,0.06-0.284,0.09-0.43,0.09
		c-0.113,0-0.21-0.014-0.29-0.04c-0.013-0.127,0.015-0.23,0.085-0.31c0.07-0.08,0.195-0.167,0.375-0.261
		c0.16-0.08,0.267-0.146,0.32-0.199c0.307-0.254,0.646-0.381,1.02-0.381c0.28,0,0.513,0.094,0.7,0.28
		c0.067,0.16,0.1,0.347,0.1,0.561c0,0.26-0.059,0.513-0.175,0.76c-0.117,0.246-0.322,0.587-0.615,1.02l-0.18,0.271
		c0.26-0.167,0.396-0.254,0.41-0.26l0.36-0.23c0.02-0.007,0.063-0.01,0.13-0.01c0.187,0,0.341,0.078,0.465,0.234
		c0.124,0.157,0.185,0.342,0.185,0.556c0,0.113-0.014,0.2-0.04,0.26l-0.21,0.78c-0.107,0.42-0.19,0.729-0.25,0.93
		c0.22,0.127,0.506,0.233,0.86,0.32c0.48,0.166,0.813,0.303,1,0.41c0.233,0.133,0.41,0.333,0.53,0.6c-0.127,0.066-0.27,0.1-0.43,0.1
		c-0.146,0-0.29-0.024-0.43-0.074c-0.14-0.051-0.343-0.142-0.61-0.275c-0.354-0.18-0.617-0.287-0.79-0.32l0.08-0.189l-0.44-0.11
		c-0.08,0.153-0.185,0.287-0.315,0.4s-0.318,0.246-0.565,0.399c-0.3,0.187-0.51,0.344-0.63,0.471c-0.12-0.04-0.23-0.061-0.33-0.061
		c-0.147,0-0.3,0.021-0.46,0.061l-0.33,0.05c0.04,0.173,0.056,0.243,0.05,0.21l0.05,0.21c0.067,0.26,0.097,0.47,0.09,0.63
		c-0.24-0.073-0.432-0.195-0.575-0.365s-0.298-0.432-0.465-0.785c-0.12-0.246-0.224-0.437-0.31-0.569
		c-0.087-0.134-0.19-0.25-0.31-0.351c0.453,0.327,0.787,0.634,1,0.92c-0.06-1.08-0.124-1.863-0.19-2.35l-0.36,0.5
		c-0.22,0.313-0.398,0.54-0.535,0.68C7.28,9.107,7.112,9.213,6.912,9.286l0.01,0.22c0.007,0.054,0.01,0.13,0.01,0.23
		c0,0.239-0.067,0.42-0.2,0.54c-0.126-0.061-0.227-0.16-0.3-0.301c-0.074-0.14-0.12-0.3-0.14-0.479c0.086-0.453,0.17-1.03,0.25-1.73
		l0.1-0.85l-0.18-0.07c0.207-0.159,0.31-0.42,0.31-0.779l-0.02-0.44c-0.02-0.113-0.03-0.196-0.03-0.25
		c0.273,0.073,0.41,0.294,0.41,0.66c0,0.146-0.013,0.297-0.04,0.45c0.354-0.12,0.644-0.181,0.87-0.181c0.113,0,0.22,0.011,0.32,0.03
		c0.013-1.153,0.033-2.01,0.06-2.57c-0.08,0.027-0.173,0.04-0.28,0.04c-0.18,0-0.352-0.04-0.515-0.119
		C7.384,3.607,7.252,3.496,7.152,3.357z M7.072,6.906c-0.086,0.547-0.123,0.986-0.11,1.319l0.3-0.319
		c0.207-0.214,0.37-0.401,0.49-0.565c0.12-0.163,0.217-0.331,0.29-0.505l-0.33-0.02C7.499,6.817,7.285,6.846,7.072,6.906z
		 M8.812,7.966c0,0.287,0.037,0.76,0.11,1.42l0.08,0.66c0.227-0.08,0.443-0.187,0.65-0.32c-0.193-0.293-0.28-0.68-0.26-1.159
		l0.02-0.431C9.172,8.056,8.972,7.999,8.812,7.966z M9.522,8.166l0.16,0.34l-0.01-0.319L9.522,8.166z M10.232,8.416l-0.01,0.29
		c0,0.087,0.006,0.283,0.02,0.59c0.213-0.187,0.413-0.434,0.6-0.74C10.548,8.483,10.345,8.437,10.232,8.416z M10.272,7.336
		c-0.007,0.101-0.01,0.323-0.01,0.67l0.79,0.12c0.26-0.553,0.463-1.217,0.61-1.99c-0.134,0.12-0.287,0.267-0.46,0.44
		c-0.227,0.227-0.402,0.392-0.525,0.495C10.554,7.175,10.419,7.263,10.272,7.336z"/>
	<path style="fill:#FE8301;" d="M18.292,2.506c0.026-0.007,0.063-0.01,0.11-0.01c0.16,0,0.307,0.054,0.44,0.16
		c0.167,0.127,0.25,0.29,0.25,0.49c0,0.073-0.003,0.119-0.01,0.14c-0.067,0.14-0.18,0.283-0.34,0.43
		c-0.154,0.153-0.247,0.257-0.28,0.311c0.207-0.094,0.423-0.141,0.65-0.141s0.409,0.045,0.545,0.136
		c0.136,0.09,0.205,0.228,0.205,0.415c0,0.066-0.003,0.109-0.01,0.13c-0.187,0.253-0.477,0.576-0.87,0.97
		c-0.153,0.14-0.283,0.273-0.39,0.4c0.24,0.02,0.517,0.066,0.83,0.14l0.49,0.13c0.34,0.1,0.623,0.174,0.85,0.22
		c0.227,0.047,0.45,0.07,0.67,0.07c0.167,0,0.343-0.021,0.53-0.06l-0.01,0.14l0.31,0.08c0.193,0.054,0.35,0.12,0.47,0.2
		s0.2,0.199,0.24,0.359c-0.06,0.134-0.167,0.2-0.32,0.2c-0.086,0-0.22-0.03-0.4-0.09c-0.04-0.007-0.088-0.019-0.145-0.035
		s-0.105-0.028-0.145-0.035c-0.44-0.033-0.863-0.104-1.27-0.21c-0.473-0.126-0.963-0.283-1.47-0.47
		c-0.46-0.167-0.764-0.271-0.91-0.311l-1.02,1.53c-0.407,0.374-0.667,0.627-0.78,0.76c0.36-0.1,0.836-0.267,1.43-0.5
		c0.227-0.326,0.34-0.616,0.34-0.869c0-0.16-0.047-0.307-0.14-0.44c0.227-0.007,0.421,0.068,0.585,0.225
		c0.163,0.157,0.245,0.349,0.245,0.575c0,0.113-0.023,0.22-0.07,0.32l0.53,0.03c0.126,0.013,0.247,0.055,0.36,0.125
		c0.113,0.069,0.197,0.171,0.25,0.305c0.08,0.16,0.12,0.337,0.12,0.53c0,0.187-0.037,0.375-0.11,0.564
		c-0.073,0.19-0.193,0.438-0.36,0.745l-0.16,0.3c-0.154,0.214-0.344,0.32-0.57,0.32c-0.187,0-0.374-0.065-0.56-0.195
		s-0.34-0.295-0.46-0.495l-0.29,0.32c-0.167,0.187-0.34,0.36-0.52,0.521l0.03-0.32c-0.02,0.007-0.057,0.036-0.11,0.09
		c0.02,0.167-0.028,0.295-0.145,0.385c-0.117,0.09-0.315,0.175-0.595,0.255l-0.24,0.08c0.293-0.307,0.557-0.665,0.79-1.075
		c0.233-0.409,0.467-0.901,0.7-1.475c-0.213,0.193-0.45,0.29-0.71,0.29c-0.307,0-0.537-0.146-0.69-0.44
		c-0.427,0.32-0.937,0.48-1.53,0.48c-0.133,0-0.316-0.017-0.55-0.05c0.413-0.141,0.78-0.327,1.1-0.561
		c0.346-0.253,0.643-0.517,0.89-0.79c0.307-0.346,0.617-0.713,0.93-1.1l0.56-0.68c-0.14-0.061-0.28-0.09-0.42-0.09
		c-0.16,0-0.307,0.036-0.44,0.109c-0.074-0.086-0.164-0.146-0.27-0.18c-0.107-0.033-0.253-0.061-0.44-0.08l0.26-0.1l0.22-0.07
		c0.16-0.267,0.433-0.641,0.82-1.12c0.307-0.4,0.54-0.715,0.7-0.945c0.16-0.229,0.296-0.468,0.41-0.715
		c-0.006-0.04-0.023-0.097-0.05-0.17c-0.027-0.073-0.04-0.11-0.04-0.11S18.305,2.539,18.292,2.506z M17.232,5.666
		c0.1,0.033,0.193,0.05,0.28,0.05c0.187,0,0.343-0.063,0.47-0.189c0.126-0.127,0.287-0.356,0.48-0.69
		c0.153-0.246,0.273-0.427,0.36-0.54c-0.267-0.02-0.488,0.04-0.665,0.18c-0.177,0.141-0.379,0.387-0.605,0.74
		C17.445,5.397,17.338,5.546,17.232,5.666z M18.122,9.806c0.08,0.034,0.156,0.051,0.23,0.051c0.26,0,0.473-0.16,0.64-0.48
		c0.16-0.307,0.26-0.623,0.3-0.95c-0.24-0.02-0.425,0.039-0.555,0.175c-0.13,0.137-0.258,0.375-0.385,0.716
		C18.265,9.516,18.189,9.68,18.122,9.806z"/>
	<path style="fill:#FE8301;" d="M25.822,2.777c0.22-0.014,0.398,0.06,0.535,0.22s0.205,0.356,0.205,0.59
		c0,0.14-0.037,0.283-0.11,0.43c-0.034,0.014-0.095,0.025-0.185,0.035c-0.09,0.011-0.164,0.023-0.22,0.04s-0.105,0.049-0.145,0.096
		c0.14,0.06,0.313,0.109,0.52,0.149c0.2,0.047,0.37,0.101,0.51,0.16l-0.18,0.16c-0.067,0.08-0.137,0.14-0.21,0.18l0.08,0.061h-0.12
		l0.02,0.229c-0.027-0.087-0.067-0.13-0.12-0.13c-0.073,0-0.167,0.087-0.28,0.26c-0.107,0.174-0.16,0.307-0.16,0.4l-0.02-0.11
		l-0.36,0.641c0.287-0.167,0.553-0.25,0.8-0.25c0.16,0,0.317,0.046,0.47,0.14l0.03,0.13c0,0.106-0.086,0.254-0.26,0.44
		c-0.094,0.093-0.16,0.18-0.2,0.26c0.133-0.021,0.262-0.056,0.385-0.105c0.123-0.05,0.285-0.121,0.485-0.215
		c0.354-0.173,0.617-0.273,0.79-0.3c0.026-0.146,0.097-0.39,0.21-0.73c0.02-0.066,0.053-0.176,0.1-0.33
		c0.046-0.152,0.083-0.293,0.11-0.42c0.026-0.126,0.037-0.263,0.03-0.409c0.086-0.107,0.193-0.16,0.32-0.16
		c0.093,0,0.187,0.026,0.28,0.08c0.093,0.053,0.17,0.123,0.23,0.21l-0.1,0.21l0.08,0.14l-0.17,0.03l0.01,0.08
		c0,0.073-0.015,0.149-0.045,0.229c-0.03,0.08-0.075,0.187-0.135,0.32c-0.093,0.213-0.15,0.366-0.17,0.46
		c0.146-0.187,0.353-0.28,0.62-0.28c0.14,0,0.285,0.021,0.435,0.061c0.15,0.04,0.238,0.063,0.265,0.069
		c-0.08,0.141-0.183,0.25-0.31,0.33c-0.126,0.08-0.307,0.16-0.54,0.24c-0.026,0.014-0.098,0.042-0.215,0.085
		c-0.117,0.044-0.211,0.089-0.285,0.135c0.147,0.021,0.273,0.074,0.38,0.16c0.106,0.087,0.16,0.187,0.16,0.3
		c0,0.061-0.02,0.127-0.06,0.2c-0.067,0.334-0.12,0.59-0.16,0.771c-0.14,0.626-0.21,1.069-0.21,1.33c0,0.153,0.023,0.296,0.07,0.43
		c0.213,0.193,0.493,0.29,0.84,0.29c0.26,0,0.597-0.057,1.01-0.17c0.113-0.113,0.17-0.254,0.17-0.42c0-0.073-0.023-0.224-0.07-0.45
		c-0.067-0.22-0.1-0.387-0.1-0.5c0-0.146,0.033-0.264,0.1-0.351c0.193,0.12,0.31,0.197,0.35,0.23c0.08,0.066,0.2,0.174,0.36,0.32
		c0.106,0.106,0.187,0.18,0.24,0.22l-0.12,0.01c-0.007,0.101,0.011,0.193,0.055,0.28s0.068,0.137,0.075,0.15l0.12,0.369
		c0.033,0.114-0.03,0.204-0.19,0.271c-0.26,0.18-0.55,0.321-0.87,0.425c-0.32,0.104-0.637,0.155-0.95,0.155
		c-0.68,0-1.217-0.21-1.61-0.63c-0.094-0.261-0.14-0.523-0.14-0.79c0-0.181,0.015-0.36,0.045-0.54
		c0.03-0.181,0.082-0.437,0.155-0.771c0.106-0.513,0.17-0.843,0.19-0.989c-0.153,0.279-0.284,0.553-0.39,0.819
		c-0.133,0.334-0.257,0.7-0.37,1.101c-0.12,0.413-0.23,0.751-0.33,1.015c-0.1,0.264-0.213,0.512-0.34,0.745
		c-0.113,0.007-0.217-0.042-0.31-0.146s-0.14-0.215-0.14-0.335c0-0.06,0.013-0.113,0.04-0.16c0.094-0.293,0.237-0.683,0.43-1.17
		c0.167-0.406,0.296-0.753,0.39-1.04c0.086-0.253,0.167-0.536,0.24-0.85c-0.347,0.2-0.64,0.3-0.88,0.3
		c-0.167,0-0.317-0.046-0.45-0.14c-0.034-0.026-0.077-0.04-0.13-0.04s-0.113,0.037-0.18,0.11c-0.067,0.073-0.11,0.119-0.13,0.14
		c0.14-0.007,0.24,0.009,0.3,0.045c0.06,0.037,0.09,0.095,0.09,0.175s-0.03,0.2-0.09,0.36c-0.007,0.02-0.03,0.085-0.07,0.195
		c-0.04,0.109-0.06,0.204-0.06,0.284s0.023,0.153,0.07,0.221l0.23,0.25c0.013,0.013,0.072,0.068,0.175,0.165
		c0.104,0.097,0.185,0.205,0.245,0.324c-0.093,0.134-0.19,0.2-0.29,0.2c-0.086,0-0.171-0.041-0.255-0.125
		c-0.083-0.083-0.145-0.182-0.185-0.295c-0.033,0.12-0.05,0.214-0.05,0.28c0,0.08,0.02,0.167,0.06,0.26
		c-0.08,0.106-0.137,0.217-0.17,0.33c-0.033,0.113-0.07,0.29-0.11,0.53l-0.04,0.3v-0.17l-0.22,0.16c-0.134-0.193-0.2-0.417-0.2-0.67
		c0.006-0.153,0.05-0.437,0.13-0.851l0.04-0.18c0.02-0.087,0.039-0.205,0.055-0.355c0.017-0.149,0.021-0.278,0.015-0.385l-0.2-0.09
		c-0.047,0.14-0.17,0.283-0.37,0.43c-0.027-0.006-0.097-0.053-0.21-0.14l-0.03,0.28c-0.147,0.02-0.247,0.036-0.3,0.05l-0.2-0.28
		c0.013-0.1-0.034-0.196-0.14-0.29c0.093-0.187,0.17-0.378,0.23-0.575c0.06-0.196,0.117-0.451,0.17-0.765l0.1-0.45
		c0.04-0.22,0.113-0.463,0.22-0.729c-0.06,0.073-0.132,0.132-0.215,0.175s-0.198,0.088-0.345,0.135
		c-0.207,0.066-0.36,0.15-0.46,0.25c-0.094,0.073-0.197,0.11-0.31,0.11c-0.14,0-0.253-0.05-0.34-0.15l0.03-0.09
		c-0.1-0.133-0.15-0.233-0.15-0.3c0-0.033,0.01-0.063,0.03-0.09c0.673-0.227,1.237-0.477,1.69-0.75
		c0.453-0.261,0.763-0.613,0.93-1.061l0.18,0.05l-0.11-0.18c0.073-0.093,0.11-0.193,0.11-0.3s-0.043-0.267-0.13-0.48L25.822,2.777z
		 M23.882,8.586c0.593,0.307,1.017,0.884,1.27,1.73c-0.073,0.053-0.143,0.08-0.21,0.08c-0.073,0-0.14-0.03-0.2-0.091
		c-0.06-0.06-0.134-0.159-0.22-0.3l-0.12,0.12l-0.07-0.12l0.17-0.05l-0.08-0.1h-0.11c0-0.221-0.073-0.467-0.22-0.74
		C23.985,8.916,23.915,8.739,23.882,8.586z M25.312,7.317c0.106-0.127,0.203-0.261,0.29-0.4l-0.1-0.12
		C25.389,6.876,25.325,7.05,25.312,7.317z M30.032,3.437c0.453,0.153,0.821,0.319,1.105,0.5c0.283,0.18,0.511,0.413,0.685,0.699
		c-0.026,0.034-0.077,0.074-0.15,0.12c-0.073,0.047-0.137,0.07-0.19,0.07c-0.04,0-0.073-0.014-0.1-0.04
		c-0.467-0.213-0.805-0.417-1.015-0.61C30.157,3.983,30.046,3.736,30.032,3.437z"/>
	<path style="fill:#FE8301;" d="M35.802,2.817c0.12-0.106,0.27-0.188,0.45-0.245s0.37-0.085,0.57-0.085
		c0.36,0,0.653,0.083,0.88,0.25c0.006,0.073,0.01,0.184,0.01,0.33c0,0.18-0.012,0.395-0.035,0.645s-0.051,0.521-0.085,0.815
		c-0.08,0.706-0.12,1.246-0.12,1.62c0,0.273,0.01,0.517,0.03,0.729c0.033,0.007,0.085,0.032,0.155,0.075
		c0.07,0.043,0.125,0.088,0.165,0.135c-0.013,0.12-0.051,0.233-0.115,0.34c-0.063,0.107-0.168,0.25-0.315,0.431
		c-0.16,0.206-0.267,0.352-0.32,0.435c-0.053,0.083-0.097,0.185-0.13,0.305c0.133-0.153,0.26-0.27,0.38-0.35
		c0.12-0.08,0.244-0.12,0.37-0.12c0.106,0,0.21,0.023,0.31,0.07c-0.04,0.12-0.11,0.233-0.21,0.34s-0.233,0.224-0.4,0.35
		c-0.24,0.181-0.412,0.346-0.515,0.495c-0.104,0.15-0.152,0.318-0.145,0.505c0.42,0.287,0.85,0.514,1.29,0.681
		c0.487,0.187,1.057,0.373,1.71,0.56c0.027,0.007,0.12,0.033,0.28,0.08c0.153,0.04,0.285,0.106,0.395,0.2
		c0.11,0.093,0.188,0.206,0.235,0.34c-0.167,0.06-0.313,0.09-0.44,0.09c-0.08,0-0.13-0.003-0.15-0.01
		c-0.747-0.073-1.48-0.287-2.2-0.64c-0.72-0.354-1.48-0.837-2.28-1.45l-0.15,0.22c-0.28,0.406-0.53,0.703-0.75,0.89
		c-0.22,0.187-0.48,0.301-0.78,0.341c0.026-0.047,0.077-0.134,0.15-0.261c0.073-0.126,0.113-0.25,0.12-0.37l0.1,0.08l0.27-0.489
		l0.1-0.19c0.146-0.28,0.252-0.49,0.315-0.63c0.063-0.14,0.119-0.29,0.165-0.45c-0.14,0.066-0.307,0.197-0.5,0.39
		c-0.12,0.12-0.23,0.21-0.33,0.271c-0.16,0.026-0.307-0.021-0.44-0.146c-0.133-0.123-0.2-0.268-0.2-0.435
		c0-0.054,0.003-0.083,0.01-0.09c0.047,0.007,0.1,0.01,0.16,0.01c0.113,0,0.215-0.02,0.305-0.06c0.09-0.04,0.208-0.113,0.355-0.221
		l0.17-0.12l-0.01-0.05c0.187-0.02,0.352-0.068,0.495-0.145c0.144-0.077,0.245-0.179,0.305-0.306
		c0.213-0.053,0.421-0.141,0.625-0.265c0.203-0.123,0.448-0.295,0.735-0.515c-0.12-0.207-0.193-0.384-0.22-0.53
		c-0.16,0.146-0.287,0.257-0.38,0.33c0.007,0.134-0.033,0.253-0.12,0.36c-0.086,0.106-0.187,0.159-0.3,0.159
		c-0.107,0-0.2-0.053-0.28-0.159c-0.027-0.107-0.04-0.233-0.04-0.381c0-0.232,0.033-0.513,0.1-0.84c0.074-0.38,0.1-0.66,0.08-0.84
		l-0.05-0.439c0.093-0.146,0.157-0.347,0.19-0.601c-0.087-0.106-0.13-0.246-0.13-0.42l0.16-0.02c0.18,0,0.342,0.057,0.485,0.17
		c0.143,0.113,0.215,0.246,0.215,0.399c0,0.087-0.03,0.177-0.09,0.271c0.227,0.033,0.393,0.063,0.5,0.09
		c0.046-0.326,0.07-0.627,0.07-0.9c0-0.253-0.017-0.489-0.05-0.71l-0.24,0.011C36.272,3.147,35.975,3.036,35.802,2.817z
		 M35.982,8.496c0,0.1-0.023,0.229-0.07,0.39c-0.047,0.16-0.07,0.271-0.07,0.33c0,0.174,0.1,0.29,0.3,0.351l0.08-0.42
		c0.033-0.181,0.068-0.344,0.105-0.49c0.037-0.146,0.082-0.283,0.135-0.41C36.249,8.366,36.088,8.449,35.982,8.496z M36.552,5.226
		h-0.29c-0.04,0.147-0.06,0.301-0.06,0.461c0,0.119,0.003,0.196,0.01,0.229C36.379,5.73,36.492,5.499,36.552,5.226z M36.462,6.196
		c0.153-0.061,0.258-0.113,0.315-0.16s0.085-0.116,0.085-0.21C36.735,5.886,36.602,6.01,36.462,6.196z M36.782,6.746
		c0.013-0.187,0.02-0.326,0.02-0.42c-0.066,0.087-0.1,0.167-0.1,0.24C36.702,6.633,36.729,6.693,36.782,6.746z"/>
	<path style="fill:#FE8301;" d="M43.702,6.226l0.06,0.23c0.053-0.073,0.14-0.227,0.26-0.46c0.126-0.26,0.25-0.457,0.37-0.59
		c-0.027,0.133-0.074,0.3-0.14,0.5l-0.06,0.2c-0.1,0.273-0.173,0.51-0.22,0.71c-0.047,0.199-0.07,0.396-0.07,0.59
		c0,0.253,0.047,0.49,0.14,0.71c0.26-0.46,0.457-0.87,0.59-1.23c0.133-0.359,0.2-0.71,0.2-1.05c0-0.08-0.017-0.229-0.05-0.45
		c0.286,0.313,0.43,0.714,0.43,1.2c0,0.34-0.07,0.68-0.21,1.021c-0.14,0.34-0.327,0.633-0.56,0.88
		c-0.086,0.06-0.146,0.128-0.18,0.205c-0.034,0.076-0.063,0.201-0.09,0.375c-0.033,0.239-0.09,0.409-0.17,0.51
		c-0.273-0.193-0.577-0.29-0.91-0.29c-0.247,0-0.463,0.063-0.65,0.189c-0.1,0.007-0.187-0.033-0.26-0.119
		c-0.074-0.087-0.11-0.19-0.11-0.311c0-0.16,0.054-0.273,0.16-0.34c0.153-0.113,0.285-0.241,0.395-0.385s0.251-0.368,0.425-0.675
		c0.034-0.073,0.12-0.227,0.26-0.46c0.04-0.141,0.06-0.264,0.06-0.37c0-0.141-0.017-0.28-0.05-0.42
		c-0.033-0.141-0.086-0.311-0.16-0.511c-0.067-0.16-0.114-0.303-0.14-0.43c0.02-0.007,0.06-0.01,0.12-0.01
		c0.167,0,0.29,0.06,0.37,0.18C43.592,5.746,43.655,5.946,43.702,6.226z M42.932,8.527c0.126,0.086,0.283,0.137,0.47,0.149
		c0.047-0.16,0.07-0.347,0.07-0.56v-0.36C43.392,7.89,43.212,8.147,42.932,8.527z M45.882,3.647c0.12-0.127,0.275-0.227,0.465-0.301
		c0.19-0.073,0.385-0.109,0.585-0.109c0.293,0,0.526,0.075,0.7,0.225c0.173,0.15,0.257,0.368,0.25,0.655
		c-0.4,0.627-0.6,1.18-0.6,1.66c0,0.434,0.153,0.79,0.46,1.069c0.06,0.054,0.125,0.089,0.195,0.105s0.178,0.028,0.325,0.035
		c0.2,0.02,0.346,0.05,0.44,0.09c0.093,0.04,0.167,0.123,0.22,0.25c0.04,0.06,0.06,0.113,0.06,0.16c0,0.093-0.06,0.154-0.18,0.185
		c-0.12,0.03-0.3,0.045-0.54,0.045c0.013,0.027,0.028,0.065,0.045,0.115c0.017,0.05,0.031,0.089,0.045,0.115
		c0.1,0.233,0.17,0.42,0.21,0.56c0.04,0.141,0.06,0.277,0.06,0.41c0,0.227-0.077,0.427-0.23,0.6c-0.287,0.4-0.668,0.698-1.145,0.896
		c-0.477,0.196-1.015,0.295-1.615,0.295c-0.253,0-0.537-0.02-0.85-0.06c0.7-0.261,1.265-0.527,1.695-0.801
		c0.43-0.272,0.775-0.62,1.035-1.04c0.12-0.18,0.18-0.386,0.18-0.619c0-0.167-0.023-0.317-0.07-0.45
		c-0.18,0.033-0.357,0.05-0.53,0.05c-0.207,0-0.407-0.019-0.6-0.055c-0.194-0.037-0.49-0.105-0.89-0.205l-0.41-0.101
		c0.146-0.1,0.305-0.165,0.475-0.194c0.17-0.03,0.421-0.056,0.755-0.075c0.333,0,0.613-0.026,0.84-0.08
		c-0.394-0.547-0.59-1.17-0.59-1.87c0-0.467,0.083-0.91,0.25-1.33c-0.253-0.173-0.517-0.26-0.79-0.26
		C46.079,3.616,45.995,3.626,45.882,3.647z"/>
</g>
<g>
	<path style="fill:#FE8301;" d="M10.087,37.344l-0.16-0.19c0.027-0.006,0.077-0.01,0.15-0.01c0.26,0,0.48,0.117,0.66,0.351
		c0.173,0.233,0.307,0.507,0.4,0.819c0.12,0.014,0.2,0.021,0.24,0.021c0.247,0.02,0.42,0.055,0.52,0.104
		c0.1,0.051,0.146,0.142,0.14,0.275c-0.127,0.094-0.257,0.163-0.39,0.21s-0.33,0.104-0.59,0.17c-0.26,0.047-0.483,0.113-0.67,0.2
		c-0.06,0.153-0.1,0.314-0.12,0.484c-0.02,0.171-0.034,0.393-0.04,0.665c-0.007,0.268-0.023,0.494-0.05,0.681
		c-0.026,0.187-0.073,0.37-0.14,0.55c0.68-0.62,1.066-1.236,1.16-1.85c0.007-0.08-0.01-0.141-0.05-0.181
		c-0.033-0.033-0.153-0.123-0.36-0.27c0.066-0.014,0.153-0.021,0.26-0.021c0.167,0,0.313,0.032,0.44,0.096
		c0.127,0.063,0.21,0.158,0.25,0.284l0.02,0.25c0,0.273-0.066,0.549-0.2,0.825c-0.134,0.277-0.317,0.525-0.55,0.745
		c0.18-0.014,0.46-0.093,0.84-0.24c0.273-0.1,0.486-0.168,0.64-0.205c0.153-0.036,0.31-0.055,0.47-0.055
		c0.34,0,0.61,0.144,0.81,0.43c-0.354,0.107-0.867,0.233-1.54,0.381c-0.68,0.146-1.21,0.279-1.59,0.399
		c-0.454,0.14-0.867,0.307-1.24,0.5c0.2,0.134,0.396,0.363,0.59,0.69c0.14-0.054,0.244-0.084,0.31-0.09
		c0.34-0.113,0.657-0.207,0.95-0.28c0.253-0.054,0.503-0.08,0.75-0.08l0.21,0.01c0.187,0.021,0.345,0.073,0.475,0.16
		c0.13,0.087,0.188,0.2,0.175,0.34c-0.02,0.12-0.07,0.23-0.15,0.33s-0.2,0.217-0.36,0.35c-0.187,0.154-0.307,0.268-0.36,0.341
		c0.047,0.04,0.164,0.086,0.35,0.14c0.167,0.04,0.29,0.09,0.37,0.15c-0.02,0.18-0.102,0.313-0.245,0.399s-0.372,0.16-0.685,0.22
		l-0.38,0.091c-0.073-0.007-0.138,0.008-0.195,0.045c-0.057,0.036-0.128,0.108-0.215,0.215c-0.113,0.133-0.207,0.2-0.28,0.2
		c-0.06,0-0.113-0.021-0.16-0.061c-0.167-0.066-0.25-0.206-0.25-0.42c0-0.094,0.015-0.207,0.045-0.34
		c0.03-0.134,0.048-0.217,0.055-0.25c0.106-0.106,0.203-0.19,0.29-0.25c0.247-0.227,0.428-0.405,0.545-0.535
		s0.215-0.278,0.295-0.445c-0.22,0.014-0.42,0.037-0.6,0.07c-0.04,0-0.12,0.007-0.24,0.021c-0.207,0.026-0.407,0.043-0.6,0.05
		c0.007,0.073,0.01,0.243,0.01,0.51c0,0.687-0.05,1.313-0.15,1.88c-0.213-0.127-0.363-0.298-0.45-0.515
		c-0.087-0.217-0.13-0.481-0.13-0.795l0.02-0.57l0.02-0.57c0-0.373-0.054-0.666-0.16-0.88c-0.293,0.134-0.653,0.26-1.08,0.38
		c-0.02,0.188-0.059,0.362-0.115,0.525s-0.162,0.278-0.315,0.345c-0.187-0.16-0.34-0.34-0.46-0.54c0.087-0.086,0.164-0.17,0.23-0.25
		c-0.146-0.02-0.267-0.029-0.36-0.029c-0.107,0.193-0.19,0.39-0.25,0.59l0.26,0.12c0.433,0.199,0.773,0.38,1.02,0.54
		c0.247,0.166,0.39,0.409,0.43,0.729c-0.02,0.007-0.067,0.01-0.14,0.01c-0.133,0-0.247-0.031-0.34-0.095s-0.237-0.191-0.43-0.385
		c-0.233-0.233-0.407-0.373-0.52-0.42c-0.133-0.134-0.253-0.2-0.36-0.2c-0.093,0-0.157,0.057-0.19,0.17
		c-0.146,0.34-0.365,0.632-0.655,0.875s-0.619,0.408-0.985,0.495c0.1-0.167,0.25-0.377,0.45-0.63
		c0.187-0.227,0.325-0.413,0.415-0.561c0.09-0.146,0.155-0.303,0.195-0.47c-0.193-0.273-0.29-0.606-0.29-1
		c0-0.18,0.03-0.47,0.09-0.87c0.06-0.38,0.09-0.673,0.09-0.88c0-0.333-0.06-0.623-0.18-0.87c0.34-0.033,0.533,0.21,0.58,0.73
		l0.4-0.11l-0.02-0.28c0.48,0.127,0.72,0.494,0.72,1.101c0,0.347-0.073,0.72-0.22,1.12l0.32-0.11c0.006-0.366,0.046-0.91,0.12-1.63
		l0.07-0.69c0.033-0.453,0.046-0.826,0.04-1.12l-0.24-0.02c-0.193,0-0.34,0.014-0.44,0.04c-0.1,0.02-0.203,0.03-0.31,0.03
		c-0.187,0-0.376-0.027-0.57-0.08l-0.06-0.29l0.27-0.061c0.44-0.073,0.747-0.109,0.92-0.109c0.367,0,0.667,0.086,0.9,0.26
		c0.093,0.094,0.197,0.14,0.31,0.14c0.106,0,0.204-0.033,0.29-0.1c0.093-0.073,0.208-0.135,0.345-0.186
		c0.136-0.05,0.305-0.104,0.505-0.165c0.307-0.093,0.535-0.173,0.685-0.239s0.281-0.164,0.395-0.29c-0.313,0-0.514-0.004-0.6-0.011
		l0.43-0.399C10.51,37.844,10.34,37.624,10.087,37.344z M6.377,41.274c0.04,0.387,0.06,0.737,0.06,1.051
		c0,0.359-0.027,0.716-0.08,1.069l0.08-0.27c0.12-0.407,0.22-0.771,0.3-1.09c0.06-0.261,0.097-0.554,0.11-0.881
		C6.727,41.194,6.57,41.234,6.377,41.274z M8.887,39.674l-0.34,0.12c-0.12,0.687-0.21,1.236-0.27,1.649
		c-0.066,0.381-0.11,0.801-0.13,1.261c0.307-0.12,0.803-0.363,1.49-0.73c-0.034-0.166-0.05-0.34-0.05-0.52
		c0-0.261,0.053-0.637,0.16-1.13c0.046-0.227,0.073-0.357,0.08-0.391c0.04-0.173,0.066-0.376,0.08-0.609
		c-0.227,0.06-0.437,0.123-0.63,0.189L8.887,39.674z"/>
	<path style="fill:#FE8301;" d="M16.207,38.745c0.18,0.033,0.327,0.126,0.44,0.279s0.17,0.324,0.17,0.511
		c0,0.073-0.003,0.119-0.01,0.14c-0.02,0.134-0.057,0.255-0.11,0.365c-0.053,0.109-0.143,0.255-0.27,0.435
		c-0.053,0.094-0.097,0.164-0.13,0.21c-0.026,0.04-0.083,0.12-0.17,0.24c-0.087,0.12-0.15,0.227-0.19,0.32
		c0.333,0.473,0.5,1.076,0.5,1.81c0,0.24-0.017,0.521-0.05,0.84l-0.07,0.5l-0.03,0.26c-0.127-0.033-0.227-0.1-0.3-0.199
		c-0.086-0.106-0.15-0.243-0.19-0.41l-0.07-0.29c0.133-0.474,0.2-0.9,0.2-1.28c0-0.373-0.053-0.7-0.16-0.979
		c-0.133,0.133-0.277,0.31-0.43,0.529l-0.26,0.37c-0.213,0.32-0.395,0.573-0.545,0.76c-0.15,0.188-0.319,0.354-0.505,0.5l-0.03-0.22
		c0-0.073,0.026-0.137,0.08-0.189c0.526-0.754,0.97-1.438,1.33-2.056c0.36-0.616,0.66-1.231,0.9-1.845
		c0.026-0.047,0.04-0.1,0.04-0.16c0-0.053-0.02-0.128-0.06-0.225S16.22,38.791,16.207,38.745z M19.757,37.844
		c0.287,0.113,0.505,0.316,0.655,0.61c0.15,0.293,0.278,0.693,0.385,1.199c0.02-0.006,0.05-0.01,0.09-0.01
		c0.133,0,0.24,0.04,0.32,0.12s0.12,0.174,0.12,0.28c0,0.08-0.032,0.149-0.095,0.21c-0.063,0.06-0.145,0.09-0.245,0.09
		c-0.073,0-0.123-0.003-0.15-0.01c0.14,0.587,0.21,1.257,0.21,2.01c0,0.8-0.1,1.787-0.3,2.96c-0.333,0.273-0.757,0.41-1.27,0.41
		c-0.394,0-0.82-0.073-1.28-0.22c0.153-0.054,0.264-0.084,0.33-0.091c0.22-0.06,0.477-0.143,0.77-0.25
		c0.467-0.18,0.777-0.47,0.93-0.869c0.16-0.721,0.24-1.474,0.24-2.261c0-0.593-0.046-1.176-0.14-1.75
		c-0.2,0.027-0.427,0.091-0.68,0.19l-0.42,0.17c-0.32,0.134-0.583,0.23-0.79,0.29s-0.407,0.09-0.6,0.09
		c-0.227,0-0.437-0.04-0.63-0.12v-0.109c0.227-0.033,0.441-0.087,0.645-0.16c0.203-0.073,0.465-0.187,0.785-0.34
		c0.46-0.227,0.833-0.37,1.12-0.431c0.34-0.073,0.51-0.27,0.51-0.59c0-0.14-0.03-0.303-0.09-0.49
		c-0.066-0.193-0.146-0.383-0.24-0.569L19.757,37.844z M17.757,41.964c0.527,0.127,1.063,0.41,1.61,0.85
		c0.04,0.027,0.073,0.067,0.1,0.12c0.027,0.054,0.04,0.106,0.04,0.16c0,0.14-0.057,0.21-0.17,0.21c-0.027,0-0.05-0.003-0.07-0.01
		c-0.394-0.101-0.729-0.267-1.005-0.5C17.985,42.561,17.817,42.285,17.757,41.964z"/>
	<path style="fill:#FE8301;" d="M25.447,37.694c0.22-0.013,0.398,0.061,0.535,0.221s0.205,0.356,0.205,0.59
		c0,0.14-0.037,0.283-0.11,0.43c-0.034,0.014-0.095,0.025-0.185,0.035c-0.09,0.01-0.164,0.023-0.22,0.04s-0.105,0.049-0.145,0.095
		c0.14,0.061,0.313,0.11,0.52,0.15c0.2,0.047,0.37,0.1,0.51,0.16l-0.18,0.16c-0.067,0.079-0.137,0.14-0.21,0.18l0.08,0.06h-0.12
		l0.02,0.23c-0.027-0.087-0.067-0.13-0.12-0.13c-0.073,0-0.167,0.087-0.28,0.26c-0.107,0.174-0.16,0.307-0.16,0.4l-0.02-0.11
		l-0.36,0.64c0.287-0.166,0.553-0.25,0.8-0.25c0.16,0,0.317,0.047,0.47,0.141l0.03,0.13c0,0.106-0.086,0.253-0.26,0.439
		c-0.094,0.094-0.16,0.181-0.2,0.261c0.133-0.021,0.262-0.056,0.385-0.105c0.123-0.05,0.285-0.121,0.485-0.215
		c0.354-0.174,0.617-0.273,0.79-0.3c0.026-0.146,0.097-0.391,0.21-0.73c0.02-0.066,0.053-0.177,0.1-0.33
		c0.046-0.153,0.083-0.293,0.11-0.42c0.026-0.126,0.037-0.263,0.03-0.41c0.086-0.106,0.193-0.16,0.32-0.16
		c0.093,0,0.187,0.027,0.28,0.08c0.093,0.054,0.17,0.124,0.23,0.21l-0.1,0.21l0.08,0.141l-0.17,0.03l0.01,0.079
		c0,0.074-0.015,0.15-0.045,0.23c-0.03,0.08-0.075,0.187-0.135,0.32c-0.093,0.213-0.15,0.366-0.17,0.46
		c0.146-0.187,0.353-0.28,0.62-0.28c0.14,0,0.285,0.02,0.435,0.06c0.15,0.04,0.238,0.063,0.265,0.07
		c-0.08,0.14-0.183,0.25-0.31,0.33c-0.126,0.08-0.307,0.16-0.54,0.24c-0.026,0.014-0.098,0.042-0.215,0.085
		s-0.211,0.088-0.285,0.135c0.147,0.021,0.273,0.073,0.38,0.16c0.106,0.087,0.16,0.187,0.16,0.3c0,0.061-0.02,0.127-0.06,0.2
		c-0.067,0.333-0.12,0.59-0.16,0.77c-0.14,0.627-0.21,1.07-0.21,1.33c0,0.153,0.023,0.297,0.07,0.431
		c0.213,0.193,0.493,0.29,0.84,0.29c0.26,0,0.597-0.057,1.01-0.17c0.113-0.113,0.17-0.254,0.17-0.421
		c0-0.073-0.023-0.223-0.07-0.449c-0.067-0.221-0.1-0.387-0.1-0.5c0-0.146,0.033-0.264,0.1-0.351c0.193,0.12,0.31,0.197,0.35,0.23
		c0.08,0.066,0.2,0.173,0.36,0.319c0.106,0.107,0.187,0.181,0.24,0.221l-0.12,0.01c-0.007,0.1,0.011,0.193,0.055,0.28
		c0.043,0.086,0.068,0.137,0.075,0.149l0.12,0.37c0.033,0.113-0.03,0.203-0.19,0.271c-0.26,0.18-0.55,0.321-0.87,0.425
		c-0.32,0.104-0.637,0.155-0.95,0.155c-0.68,0-1.217-0.21-1.61-0.631c-0.094-0.26-0.14-0.522-0.14-0.79
		c0-0.18,0.015-0.359,0.045-0.539c0.03-0.181,0.082-0.438,0.155-0.771c0.106-0.514,0.17-0.843,0.19-0.99
		c-0.153,0.28-0.284,0.554-0.39,0.82c-0.133,0.333-0.257,0.7-0.37,1.1c-0.12,0.414-0.23,0.752-0.33,1.016
		c-0.1,0.263-0.213,0.512-0.34,0.745c-0.113,0.006-0.217-0.042-0.31-0.146s-0.14-0.215-0.14-0.335c0-0.06,0.013-0.113,0.04-0.16
		c0.094-0.293,0.237-0.683,0.43-1.17c0.167-0.406,0.296-0.753,0.39-1.04c0.086-0.253,0.167-0.536,0.24-0.85
		c-0.347,0.2-0.64,0.3-0.88,0.3c-0.167,0-0.317-0.047-0.45-0.14c-0.034-0.027-0.077-0.04-0.13-0.04s-0.113,0.036-0.18,0.109
		c-0.067,0.074-0.11,0.12-0.13,0.141c0.14-0.007,0.24,0.008,0.3,0.045c0.06,0.036,0.09,0.095,0.09,0.175s-0.03,0.2-0.09,0.36
		c-0.007,0.02-0.03,0.085-0.07,0.194c-0.04,0.11-0.06,0.205-0.06,0.285s0.023,0.153,0.07,0.22l0.23,0.25
		c0.013,0.014,0.072,0.068,0.175,0.165c0.104,0.097,0.185,0.205,0.245,0.325c-0.093,0.134-0.19,0.2-0.29,0.2
		c-0.086,0-0.171-0.042-0.255-0.125s-0.145-0.182-0.185-0.295c-0.033,0.12-0.05,0.213-0.05,0.28c0,0.08,0.02,0.166,0.06,0.26
		c-0.08,0.106-0.137,0.217-0.17,0.33c-0.033,0.113-0.07,0.29-0.11,0.529l-0.04,0.301v-0.17l-0.22,0.159
		c-0.134-0.193-0.2-0.416-0.2-0.67c0.006-0.153,0.05-0.437,0.13-0.85l0.04-0.18c0.02-0.087,0.039-0.205,0.055-0.355
		c0.017-0.149,0.021-0.278,0.015-0.385l-0.2-0.09c-0.047,0.14-0.17,0.283-0.37,0.43c-0.027-0.007-0.097-0.054-0.21-0.14l-0.03,0.279
		c-0.147,0.021-0.247,0.037-0.3,0.051l-0.2-0.28c0.013-0.101-0.034-0.196-0.14-0.29c0.093-0.187,0.17-0.378,0.23-0.575
		c0.06-0.196,0.117-0.451,0.17-0.765l0.1-0.45c0.04-0.22,0.113-0.463,0.22-0.73c-0.06,0.074-0.132,0.132-0.215,0.176
		c-0.083,0.043-0.198,0.088-0.345,0.135c-0.207,0.066-0.36,0.149-0.46,0.25c-0.094,0.073-0.197,0.11-0.31,0.11
		c-0.14,0-0.253-0.051-0.34-0.15l0.03-0.09c-0.1-0.134-0.15-0.233-0.15-0.3c0-0.034,0.01-0.063,0.03-0.091
		c0.673-0.227,1.237-0.477,1.69-0.75c0.453-0.26,0.763-0.613,0.93-1.06l0.18,0.05l-0.11-0.18c0.073-0.094,0.11-0.193,0.11-0.3
		s-0.043-0.267-0.13-0.48L25.447,37.694z M23.507,43.504c0.593,0.307,1.017,0.884,1.27,1.729c-0.073,0.054-0.143,0.08-0.21,0.08
		c-0.073,0-0.14-0.029-0.2-0.09c-0.06-0.06-0.134-0.16-0.22-0.3l-0.12,0.12l-0.07-0.12l0.17-0.05l-0.08-0.101h-0.11
		c0-0.22-0.073-0.466-0.22-0.739C23.61,43.834,23.54,43.658,23.507,43.504z M24.937,42.234c0.106-0.126,0.203-0.26,0.29-0.399
		l-0.1-0.12C25.014,41.794,24.95,41.967,24.937,42.234z M29.657,38.354c0.453,0.153,0.821,0.32,1.105,0.5
		c0.283,0.181,0.511,0.414,0.685,0.7c-0.026,0.033-0.077,0.073-0.15,0.12s-0.137,0.07-0.19,0.07c-0.04,0-0.073-0.014-0.1-0.04
		c-0.467-0.214-0.805-0.417-1.015-0.61S29.671,38.654,29.657,38.354z"/>
	<path style="fill:#FE8301;" d="M35.427,37.734c0.12-0.106,0.27-0.188,0.45-0.244s0.37-0.086,0.57-0.086
		c0.36,0,0.653,0.084,0.88,0.25c0.006,0.074,0.01,0.184,0.01,0.33c0,0.181-0.012,0.396-0.035,0.646s-0.051,0.521-0.085,0.814
		c-0.08,0.707-0.12,1.247-0.12,1.62c0,0.273,0.01,0.517,0.03,0.73c0.033,0.007,0.085,0.031,0.155,0.075
		c0.07,0.043,0.125,0.088,0.165,0.135c-0.013,0.12-0.051,0.233-0.115,0.34s-0.168,0.25-0.315,0.43
		c-0.16,0.207-0.267,0.353-0.32,0.436c-0.053,0.083-0.097,0.185-0.13,0.305c0.133-0.153,0.26-0.27,0.38-0.35
		c0.12-0.08,0.244-0.12,0.37-0.12c0.106,0,0.21,0.023,0.31,0.07c-0.04,0.119-0.11,0.233-0.21,0.34s-0.233,0.223-0.4,0.35
		c-0.24,0.18-0.412,0.345-0.515,0.495s-0.152,0.318-0.145,0.505c0.42,0.287,0.85,0.514,1.29,0.68
		c0.487,0.187,1.057,0.374,1.71,0.561c0.027,0.007,0.12,0.033,0.28,0.08c0.153,0.04,0.285,0.106,0.395,0.2
		c0.11,0.093,0.188,0.206,0.235,0.34c-0.167,0.06-0.313,0.09-0.44,0.09c-0.08,0-0.13-0.004-0.15-0.01
		c-0.747-0.074-1.48-0.287-2.2-0.641c-0.72-0.354-1.48-0.837-2.28-1.45l-0.15,0.221c-0.28,0.406-0.53,0.703-0.75,0.89
		c-0.22,0.187-0.48,0.3-0.78,0.34c0.026-0.047,0.077-0.133,0.15-0.26s0.113-0.25,0.12-0.37l0.1,0.08l0.27-0.49l0.1-0.189
		c0.146-0.28,0.252-0.49,0.315-0.63c0.063-0.141,0.119-0.29,0.165-0.45c-0.14,0.066-0.307,0.196-0.5,0.39
		c-0.12,0.12-0.23,0.21-0.33,0.271c-0.16,0.026-0.307-0.021-0.44-0.146c-0.133-0.123-0.2-0.269-0.2-0.435
		c0-0.054,0.003-0.084,0.01-0.09c0.047,0.006,0.1,0.01,0.16,0.01c0.113,0,0.215-0.021,0.305-0.061c0.09-0.04,0.208-0.113,0.355-0.22
		l0.17-0.12l-0.01-0.05c0.187-0.02,0.352-0.068,0.495-0.145c0.144-0.077,0.245-0.179,0.305-0.306
		c0.213-0.053,0.421-0.142,0.625-0.265c0.203-0.123,0.448-0.295,0.735-0.515c-0.12-0.207-0.193-0.384-0.22-0.53
		c-0.16,0.146-0.287,0.257-0.38,0.33c0.007,0.133-0.033,0.253-0.12,0.359c-0.086,0.107-0.187,0.16-0.3,0.16
		c-0.107,0-0.2-0.053-0.28-0.16c-0.027-0.106-0.04-0.233-0.04-0.38c0-0.233,0.033-0.513,0.1-0.84c0.074-0.38,0.1-0.66,0.08-0.84
		l-0.05-0.44c0.093-0.146,0.157-0.347,0.19-0.6c-0.087-0.106-0.13-0.247-0.13-0.42l0.16-0.021c0.18,0,0.342,0.057,0.485,0.17
		c0.143,0.114,0.215,0.247,0.215,0.4c0,0.087-0.03,0.177-0.09,0.271c0.227,0.033,0.393,0.063,0.5,0.09
		c0.046-0.327,0.07-0.627,0.07-0.9c0-0.253-0.017-0.49-0.05-0.71l-0.24,0.01C35.897,38.064,35.6,37.955,35.427,37.734z
		 M35.607,43.415c0,0.1-0.023,0.229-0.07,0.39c-0.047,0.16-0.07,0.271-0.07,0.33c0,0.174,0.1,0.29,0.3,0.35l0.08-0.42
		c0.033-0.18,0.068-0.343,0.105-0.489c0.037-0.147,0.082-0.284,0.135-0.41C35.874,43.285,35.713,43.368,35.607,43.415z
		 M36.177,40.144h-0.29c-0.04,0.146-0.06,0.3-0.06,0.46c0,0.12,0.003,0.197,0.01,0.23C36.004,40.648,36.117,40.417,36.177,40.144z
		 M36.087,41.115c0.153-0.061,0.258-0.113,0.315-0.16s0.085-0.117,0.085-0.21C36.36,40.804,36.227,40.927,36.087,41.115z
		 M36.407,41.665c0.013-0.187,0.02-0.327,0.02-0.42c-0.066,0.086-0.1,0.166-0.1,0.239C36.327,41.551,36.354,41.611,36.407,41.665z"
		/>
	<path style="fill:#FE8301;" d="M41.457,40.934c0.073-0.053,0.143-0.08,0.21-0.08c0.093,0,0.182,0.04,0.265,0.12
		c0.083,0.08,0.148,0.177,0.195,0.29c0.18,0.36,0.313,0.74,0.4,1.14c0.087,0.4,0.124,0.801,0.11,1.2
		c-0.2-0.046-0.354-0.143-0.46-0.29c-0.1-0.126-0.17-0.27-0.21-0.43s-0.07-0.383-0.09-0.67c-0.027-0.347-0.068-0.613-0.125-0.8
		S41.597,41.068,41.457,40.934z M45.647,37.654c0.08-0.026,0.157-0.039,0.23-0.039c0.293,0,0.48,0.143,0.56,0.43
		c0.08,0.293,0.13,0.66,0.15,1.1c0.32-0.006,0.59,0.044,0.81,0.15s0.35,0.276,0.39,0.51c-0.087,0.167-0.19,0.322-0.31,0.465
		c-0.12,0.144-0.307,0.349-0.56,0.615l0.92,0.16c-0.007,0.366-0.167,0.656-0.48,0.87c-0.307,0.206-0.704,0.396-1.19,0.569
		c0.34,0.08,0.653,0.21,0.94,0.391c0.307,0.187,0.646,0.439,1.02,0.76c0.447,0.36,0.816,0.627,1.11,0.8
		c0.293,0.181,0.633,0.307,1.02,0.38c0.02,0.04,0.03,0.09,0.03,0.15c0,0.1-0.042,0.182-0.125,0.245
		c-0.083,0.063-0.188,0.095-0.315,0.095c-0.147,0-0.277-0.037-0.39-0.11c-0.46-0.18-0.907-0.442-1.34-0.79
		c-0.414-0.333-0.89-0.76-1.43-1.279l-0.63-0.601c-0.18,0.887-0.514,1.677-1,2.37c-0.494,0.693-1.117,1.123-1.87,1.29
		c0.473-0.6,0.847-1.123,1.12-1.569c0.273-0.447,0.483-0.907,0.63-1.381c-0.14-0.006-0.245-0.05-0.315-0.13
		c-0.07-0.08-0.105-0.189-0.105-0.33c0-0.133,0.04-0.27,0.12-0.409c-0.18-0.04-0.317-0.122-0.41-0.245
		c-0.093-0.124-0.184-0.322-0.27-0.596c-0.067-0.206-0.125-0.356-0.175-0.449c-0.05-0.094-0.115-0.177-0.195-0.25l0.04,0.51
		c0.053,0.68,0.08,1.236,0.08,1.67c0,0.7-0.077,1.33-0.23,1.89c-0.02,0.007-0.06,0.01-0.12,0.01c-0.193,0-0.336-0.119-0.43-0.359
		c-0.093-0.254-0.16-0.517-0.2-0.79c0.073,0.113,0.173,0.293,0.3,0.54c0.053-0.387,0.08-0.851,0.08-1.391
		c-0.007-0.239-0.01-0.513-0.01-0.819l-0.01-0.8l0.01-0.45c-0.007-0.04-0.01-0.13-0.01-0.271c0-0.18,0.013-0.416,0.04-0.71
		c0-0.04,0.007-0.126,0.02-0.26c0.013-0.133,0.02-0.276,0.02-0.43c0-0.387-0.077-0.733-0.23-1.04c0.06-0.021,0.103-0.03,0.13-0.03
		c0.146,0,0.275,0.057,0.385,0.17c0.11,0.113,0.165,0.247,0.165,0.4c0,0.04-0.007,0.073-0.02,0.1c0,0.14,0.01,0.34,0.03,0.601
		c0.013,0.267,0.02,0.43,0.02,0.489c0,0.221-0.007,0.41-0.02,0.57c0.307,0.174,0.568,0.403,0.785,0.69
		c0.216,0.286,0.368,0.6,0.455,0.939c0.24-0.146,0.41-0.337,0.51-0.57c0.1-0.232,0.187-0.58,0.26-1.04
		c0.013-0.14,0.043-0.303,0.09-0.489c-0.187,0.16-0.414,0.239-0.68,0.239c-0.167,0-0.302-0.046-0.405-0.14
		c-0.104-0.093-0.155-0.224-0.155-0.39l0.02-0.221c0.093,0.021,0.187,0.03,0.28,0.03c0.173,0,0.41-0.043,0.71-0.13
		c0.046-0.007,0.153-0.04,0.32-0.1c0.067-0.221,0.1-0.44,0.1-0.66C45.917,38.231,45.827,37.921,45.647,37.654z M46.147,41.764
		c0.247-0.133,0.428-0.241,0.545-0.325c0.117-0.083,0.225-0.182,0.325-0.295l-0.22-0.14l-0.18,0.16
		c-0.134,0.106-0.237,0.205-0.31,0.295C46.234,41.549,46.18,41.651,46.147,41.764z M46.747,39.745l-0.19-0.011
		c-0.047,0.147-0.087,0.327-0.12,0.54C46.524,40.161,46.627,39.984,46.747,39.745z"/>
</g>
</svg>
